# xmcd
#
# Track frame offsets:
#	182
#	12820
#	25082
#	38532
#	52270
#	65227
#	81025
#	91645
#	107570
#	124677
#	141042
#	155417
#	171045
#	184182
#	199695
#	213682
#	225572
#	236207
#	249952
#	262425
#
# Disc length: 3694 seconds
#
# Revision: 0
# Processed by: cddbd v1.4PL0 Copyright (c) Steve Scherf et al.
# Submitted via: audiograbber 1.81.00
#
DISCID=120e6c14
DTITLE=Quartetto Cetra - Quartetto Cetra
DYEAR=1900
DGENRE=pop
TTITLE0=Il Visconte di Castelfombrone
TTITLE1=La leggenda di Radames
TTITLE2=Oggi ho visto un leon
TTITLE3=Dimmi un po' Sinatra
TTITLE4=Nella vecchia fattoria
TTITLE5=Vecchia America
TTITLE6=Un bacio a mezzanotte
TTITLE7=In un palco della Scala
TTITLE8=Aveva un bavero
TTITLE9=Il fonografo a tromba
TTITLE10=Musetto
TTITLE11=Un disco dei Platters
TTITLE12=Non so dir "Ti voglio bene"
TTITLE13=Ricordate Marcellino
TTITLE14=Raggio di sole
TTITLE15=Pummarola Boat
TTITLE16=Donna
TTITLE17=Concertino
TTITLE18=Però mi vuol bene
TTITLE19=Sole, pizza e amore
EXTD=
EXTT0=
EXTT1=
EXTT2=
EXTT3=
EXTT4=
EXTT5=
EXTT6=
EXTT7=
EXTT8=
EXTT9=
EXTT10=
EXTT11=
EXTT12=
EXTT13=
EXTT14=
EXTT15=
EXTT16=
EXTT17=
EXTT18=
EXTT19=
PLAYORDER=
